<?xml version="1.0" standalone="no"?><!DOCTYPE svg PUBLIC "-//W3C//DTD SVG 1.1//EN" "http://www.w3.org/Graphics/SVG/1.1/DTD/svg11.dtd"><svg t="1495349266552" class="icon" style="" viewBox="0 0 1024 1024" version="1.1" xmlns="http://www.w3.org/2000/svg" p-id="21003" xmlns:xlink="http://www.w3.org/1999/xlink" width="200" height="200"><defs><style type="text/css"></style></defs><path d="M800.42044 992c-4.368808 0-8.737616-1.192081-12.576323-3.176727L511.996359 841.596121 236.147309 988.823273c-9.135838 4.898909-20.257616 4.101172-28.792242-2.120404-8.278626-6.156929-12.581495-16.682667-10.727434-27.076525l52.695919-311.858424L26.167834 426.869657c-7.34901-7.34901-10.192162-18.404848-6.883556-28.399192 3.044848-9.995636 11.716525-17.278707 21.979798-18.86901l308.282182-45.54602L487.435874 50.333737C492.136965 40.934141 501.667147 34.909091 511.996359 34.909091c10.393859 0 19.858101 6.025051 24.423434 15.424646l137.894788 283.721697 308.348121 45.54602c10.197333 1.590303 18.73196 8.873374 22.110384 18.86901 3.176727 9.994343 0.465455 21.050182-6.883556 28.399192L774.79846 647.767919l52.495515 311.858424c1.854061 10.393859-2.313051 20.919596-10.854141 27.076525C811.738743 990.213172 806.047268 992 800.42044 992L800.42044 992 800.42044 992zM511.530905 763.419152c4.106343 0 8.01099 1.056323 11.717818 2.980202l221.827879 118.358626-42.428768-250.823111c-1.393778-8.273455 1.388606-16.747313 7.277899-22.707717l167.418828-173.367596-235.79798-40.914747c-8.277333-1.192081-15.490586-6.485333-19.131475-14.030869l-110.752323-220.110869-111.010909 220.110869c-3.706828 7.545535-10.85802 12.838788-18.999596 14.030869L133.606379 433.555394l179.465051 177.671758c5.889293 5.960404 8.605737 14.434263 7.081374 22.707717l-42.232242 250.823111 221.761939-118.358626C503.389329 764.409535 507.293975 763.419152 511.530905 763.419152L511.530905 763.419152 511.530905 763.419152zM511.530905 763.419152" p-id="21004" fill="#f4ea2a"></path><path d="M494.576723 121.535354 511.815349 121.535354 512.000238 791.272727 260.987066 930.909091 288.569127 645.602263 92.906258 423.218424 144.62343 389.602263 279.95046 370.640162 314.427713 361.157818 341.148682 352.539152 355.80145 337.024Z" p-id="21005" fill="#f4ea2a"></path><path d="M559.223187 404.256323" p-id="21006" fill="#f4ea2a"></path><path d="M152.381006 422.357333" p-id="21007" fill="#f4ea2a"></path></svg>